<?xml version="1.0" encoding="UTF-8"?><svg xmlns="http://www.w3.org/2000/svg" viewBox="0 0 1000 1000" x="0px" y="0px" width="1000px" height="1000px" version="1.1" xmlns:xlink="http://www.w3.org/1999/xlink"><g style="isolation:isolate"><g id="Layer_1" data-name="Layer 1"><g opacity="0.23" style="mix-blend-mode:multiply"><path d="M619.242,274.4a3,3,0,0,1-3-3V243.465H557.381a3,3,0,0,1,0-6h61.861a3,3,0,0,1,3,3V271.4A3,3,0,0,1,619.242,274.4Z" fill="#474747"/><path d="M619.242,274.4a3,3,0,0,1-3-3V240.465a3,3,0,0,1,3-3H681.1a3,3,0,0,1,0,6H622.242V271.4A3,3,0,0,1,619.242,274.4Z" fill="#474747"/><path d="M650.174,243.465H588.312a3,3,0,0,1-3-3v-30.93a3,3,0,0,1,3-3h61.862a3,3,0,0,1,3,3v30.93A3,3,0,0,1,650.174,243.465Zm-58.862-6h55.862v-24.93H591.312Z" fill="#474747"/><path d="M681.1,212.535H619.242a3,3,0,0,1-3-3V178.6a3,3,0,0,1,3-3h17.577a3,3,0,0,1,0,6H622.242v24.931H681.1a3,3,0,0,1,0,6Z" fill="#474747"/><path d="M619.242,212.535H557.381a3,3,0,0,1,0-6h58.861V181.6H569.08a3,3,0,0,1,0-6h50.162a3,3,0,0,1,3,3v30.931A3,3,0,0,1,619.242,212.535Z" fill="#474747"/><path d="M588.312,243.465H536.293a3,3,0,0,1,0-6h49.019v-24.93H557.381a3,3,0,0,1,0-6h30.931a3,3,0,0,1,3,3v30.93A3,3,0,0,1,588.312,243.465Z" fill="#474747"/><path d="M671.617,243.465H650.174a3,3,0,0,1-3-3v-30.93a3,3,0,0,1,3-3h44.641a3,3,0,0,1,0,6H653.174v24.93h18.443a3,3,0,0,1,0,6Z" fill="#474747"/></g><g opacity="0.23" style="mix-blend-mode:multiply"><path d="M224.207,454.131H162.345a3,3,0,0,1,0-6h58.862V420.2a3,3,0,1,1,6,0v30.931A3,3,0,0,1,224.207,454.131Z" fill="#474747"/><path d="M286.069,454.131H224.207a3,3,0,0,1-3-3V420.2a3,3,0,1,1,6,0v27.931h58.862a3,3,0,1,1,0,6Z" fill="#474747"/><path d="M255.138,485.062H193.276a3,3,0,0,1-3-3V451.131a3,3,0,0,1,3-3h61.862a3,3,0,0,1,3,3v30.931A3,3,0,0,1,255.138,485.062Zm-58.862-6h55.862V454.131H196.276Z" fill="#474747"/><path d="M241.784,515.993H224.207a3,3,0,0,1-3-3V482.062a3,3,0,0,1,3-3h61.862a3,3,0,1,1,0,6H227.207v24.931h14.577a3,3,0,0,1,0,6Z" fill="#474747"/><path d="M224.207,515.993H174.044a3,3,0,1,1,0-6h47.163V485.062H162.345a3,3,0,0,1,0-6h61.862a3,3,0,0,1,3,3v30.931A3,3,0,0,1,224.207,515.993Z" fill="#474747"/><path d="M193.276,485.062H162.345a3,3,0,0,1,0-6h27.931V454.131H141.258a3,3,0,0,1,0-6h52.018a3,3,0,0,1,3,3v30.931A3,3,0,0,1,193.276,485.062Z" fill="#474747"/><path d="M299.779,485.062H255.138a3,3,0,0,1-3-3V451.131a3,3,0,0,1,3-3h21.443a3,3,0,0,1,0,6H258.138v24.931h41.641a3,3,0,0,1,0,6Z" fill="#474747"/></g><g opacity="0.23" style="mix-blend-mode:multiply"><path d="M911.852,600.951H849.99a3,3,0,0,1-3-3v-30.93a3,3,0,0,1,6,0v27.93h58.862a3,3,0,0,1,0,6Z" fill="#474747"/><path d="M849.99,600.951H788.128a3,3,0,0,1,0-6H846.99v-27.93a3,3,0,0,1,6,0v30.93A3,3,0,0,1,849.99,600.951Z" fill="#474747"/><path d="M880.921,631.883H819.059a3,3,0,0,1-3-3V597.951a3,3,0,0,1,3-3h61.862a3,3,0,0,1,3,3v30.932A3,3,0,0,1,880.921,631.883Zm-58.862-6h55.862V600.951H822.059Z" fill="#474747"/><path d="M849.99,662.813H832.413a3,3,0,0,1,0-6H846.99v-24.93H788.128a3,3,0,1,1,0-6H849.99a3,3,0,0,1,3,3v30.93A3,3,0,0,1,849.99,662.813Z" fill="#474747"/><path d="M873.179,662.813H849.99a3,3,0,0,1-3-3v-30.93a3,3,0,0,1,3-3h61.862a3,3,0,1,1,0,6H852.99v24.93h20.189a3,3,0,0,1,0,6Z" fill="#474747"/><path d="M911.852,631.883H880.921a3,3,0,0,1-3-3V597.951a3,3,0,0,1,3-3h52.017a3,3,0,1,1,0,6H883.921v24.932h27.931a3,3,0,1,1,0,6Z" fill="#474747"/><path d="M819.059,631.883H774.417a3,3,0,0,1,0-6h41.642V600.951H797.615a3,3,0,0,1,0-6h21.444a3,3,0,0,1,3,3v30.932A3,3,0,0,1,819.059,631.883Z" fill="#474747"/></g><path d="M902.173,731H201a5,5,0,0,1,0-10H902.173a5,5,0,0,1,0,10Z" fill="#333"/><path d="M178.333,731H150.5a5,5,0,0,1,0-10h27.833a5,5,0,0,1,0,10Z" fill="#333"/><polygon points="372.326 726 284.555 726 284.555 706 392.549 706 372.326 726" fill="#333"/><polygon points="503.674 726 591.445 726 591.445 706 483.451 706 503.674 726" fill="#333"/><path d="M618,614.894a909.855,909.855,0,0,1-360,0V514.825c0-9.864,8.841-19.793,19.8-21.872a910.268,910.268,0,0,1,320.41,0C609.159,495.032,618,504.961,618,514.825Z" fill="#ffc859"/><path d="M279.93,502.69a1019.819,1019.819,0,0,1,316.14,0A25.445,25.445,0,0,1,612.69,513v-2.959c0-8.556-8.58-17.168-19.212-18.972a986.848,986.848,0,0,0-310.956,0c-10.632,1.8-19.211,10.416-19.212,18.972V513A25.445,25.445,0,0,1,279.93,502.69Z" fill="#f9d895"/><path d="M407.077,589.525a539.4,539.4,0,0,1-105.906,0A15.924,15.924,0,0,1,286.9,574.941a121.9,121.9,0,0,1,0-19.468,15.925,15.925,0,0,1,14.272-14.584,539.4,539.4,0,0,1,105.906,0,15.925,15.925,0,0,1,14.272,14.584,121.917,121.917,0,0,1,0,19.469A15.925,15.925,0,0,1,407.077,589.525Z" fill="#ce5555"/><path d="M419.026,560.559a15.671,15.671,0,0,1-13.779,14.583,502.86,502.86,0,0,1-102.247,0,15.672,15.672,0,0,1-13.779-14.583c-.065-.849-.1-1.695-.147-2.543a126.307,126.307,0,0,0,.147,16.925A15.673,15.673,0,0,0,303,589.525a502.86,502.86,0,0,0,102.247,0,15.672,15.672,0,0,0,13.779-14.583,126.17,126.17,0,0,0,.147-16.927C419.125,558.863,419.092,559.71,419.026,560.559Z" fill="#ce5555" opacity="0.47" style="mix-blend-mode:multiply"/><path d="M286.9,563.473a15.925,15.925,0,0,1,14.272-14.584,539.4,539.4,0,0,1,105.906,0,15.925,15.925,0,0,1,14.272,14.584c.153,1.915.246,3.825.309,5.734a121.882,121.882,0,0,0-.309-13.734,15.925,15.925,0,0,0-14.272-14.584,539.4,539.4,0,0,0-105.906,0A15.925,15.925,0,0,0,286.9,555.473a121.9,121.9,0,0,0-.309,13.735C286.652,567.3,286.746,565.388,286.9,563.473Z" fill="#ce5555" opacity="0.5" style="mix-blend-mode:screen"/><path d="M354.124,597.125c-17.856,0-35.712-.875-53.444-2.624a20.886,20.886,0,0,1-18.765-19.162,126.01,126.01,0,0,1,0-20.264,20.888,20.888,0,0,1,18.765-19.162,545.828,545.828,0,0,1,106.888,0,20.888,20.888,0,0,1,18.765,19.162,126.241,126.241,0,0,1,0,20.264A20.888,20.888,0,0,1,407.568,594.5h0C389.836,596.25,371.98,597.125,354.124,597.125Zm52.953-7.6h0Zm-52.953-46.236c-17.53,0-35.055.858-52.462,2.575a10.9,10.9,0,0,0-9.779,10.006,116.2,116.2,0,0,0,0,18.674,10.9,10.9,0,0,0,9.779,10.006,535.914,535.914,0,0,0,104.924,0h0a10.9,10.9,0,0,0,9.779-10.006,116.2,116.2,0,0,0,0-18.674,10.9,10.9,0,0,0-9.779-10.006C389.183,544.147,371.65,543.289,354.124,543.289Z" fill="#333"/><path d="M574.829,589.525a539.4,539.4,0,0,1-105.906,0,15.925,15.925,0,0,1-14.272-14.584,121.9,121.9,0,0,1,0-19.468,15.925,15.925,0,0,1,14.272-14.584,539.4,539.4,0,0,1,105.906,0A15.925,15.925,0,0,1,589.1,555.473a121.917,121.917,0,0,1,0,19.469A15.925,15.925,0,0,1,574.829,589.525Z" fill="#ce5555"/><path d="M585.533,560.559c-.578,7.661-6.272,13.829-13.514,14.583a483.805,483.805,0,0,1-100.286,0c-7.242-.754-12.936-6.922-13.514-14.583-.064-.849-.1-1.695-.144-2.543a128.681,128.681,0,0,0,.144,16.925c.578,7.661,6.272,13.83,13.514,14.584a483.805,483.805,0,0,0,100.286,0c7.242-.754,12.936-6.923,13.514-14.583a128.7,128.7,0,0,0,.145-16.926C585.63,558.863,585.6,559.71,585.533,560.559Z" fill="#ce5555" opacity="0.47" style="mix-blend-mode:multiply"/><path d="M454.651,563.473a15.925,15.925,0,0,1,14.272-14.584,539.4,539.4,0,0,1,105.906,0A15.925,15.925,0,0,1,589.1,563.473c.153,1.915.247,3.825.309,5.734a121.882,121.882,0,0,0-.309-13.734,15.925,15.925,0,0,0-14.272-14.584,539.4,539.4,0,0,0-105.906,0,15.925,15.925,0,0,0-14.272,14.584,121.9,121.9,0,0,0-.309,13.735C454.405,567.3,454.5,565.388,454.651,563.473Z" fill="#ce5555" opacity="0.5" style="mix-blend-mode:screen"/><path d="M521.876,597.125c-17.856,0-35.712-.875-53.444-2.624a20.888,20.888,0,0,1-18.765-19.162,126.241,126.241,0,0,1,0-20.264,20.888,20.888,0,0,1,18.765-19.162,545.673,545.673,0,0,1,106.888,0,20.889,20.889,0,0,1,18.766,19.162,126.241,126.241,0,0,1,0,20.264A20.889,20.889,0,0,1,575.32,594.5h0C557.589,596.25,539.732,597.125,521.876,597.125Zm52.953-7.6h0Zm-52.953-46.236c-17.53,0-35.054.858-52.462,2.575a10.9,10.9,0,0,0-9.779,10.006,116.2,116.2,0,0,0,0,18.674,10.9,10.9,0,0,0,9.779,10.006,535.914,535.914,0,0,0,104.924,0,10.9,10.9,0,0,0,9.779-10.006,116.2,116.2,0,0,0,0-18.674,10.9,10.9,0,0,0-9.779-10.006C556.935,544.147,539.4,543.289,521.876,543.289Z" fill="#333"/><path d="M438,637.877a914.9,914.9,0,0,1-180.991-18.082A5,5,0,0,1,253,614.9V514.825c0-12.271,10.706-24.287,23.863-26.784a910.892,910.892,0,0,1,322.224-.01C612.295,490.539,623,502.554,623,514.825V614.9a5,5,0,0,1-4.009,4.9A914.9,914.9,0,0,1,438,637.877ZM263,610.795a905.083,905.083,0,0,0,175,17.082,905.083,905.083,0,0,0,175-17.082v-95.97c0-7.575-7.2-15.342-15.728-16.96a900.743,900.743,0,0,0-318.6.01C270.2,499.483,263,507.25,263,514.825Zm355,4.1h0Z" fill="#333"/><path d="M281.043,590.334H594.957A32.043,32.043,0,0,1,627,622.377v0a0,0,0,0,1,0,0H249a0,0,0,0,1,0,0v0A32.043,32.043,0,0,1,281.043,590.334Z" fill="#b2c68b"/><rect x="249" y="606.355" width="378" height="16.022" fill="#aabc80" opacity="0.38" style="mix-blend-mode:multiply"/><path d="M627,627.377H249a5,5,0,0,1-5-5,37.085,37.085,0,0,1,37.043-37.043H594.957A37.084,37.084,0,0,1,632,622.377,5,5,0,0,1,627,627.377Zm-372.537-10H621.537a27.087,27.087,0,0,0-26.58-22.043H281.043A27.088,27.088,0,0,0,254.463,617.377Z" fill="#333"/><path d="M250,622.377H626a8,8,0,0,1,8,8V706a0,0,0,0,1,0,0H242a0,0,0,0,1,0,0V630.377A8,8,0,0,1,250,622.377Z" fill="#aa7d5e"/><path d="M250,622.377H626a8,8,0,0,1,8,8V706a0,0,0,0,1,0,0H242a0,0,0,0,1,0,0V630.377A8,8,0,0,1,250,622.377Z" fill="#ffc758"/><rect x="242" y="694.333" width="392" height="11.667" fill="#ffc758" opacity="0.96" style="mix-blend-mode:multiply"/><path d="M250,622.377H626a8,8,0,0,1,8,8v2.5a0,0,0,0,1,0,0H242a0,0,0,0,1,0,0v-2.5A8,8,0,0,1,250,622.377Z" fill="#f9d895"/><path d="M634,711H242a5,5,0,0,1-5-5V630.377a13.015,13.015,0,0,1,13-13H626a13.015,13.015,0,0,1,13,13V706A5,5,0,0,1,634,711ZM247,701H629V630.377a3,3,0,0,0-3-3H250a3,3,0,0,0-3,3Z" fill="#333"/><path d="M372.326,731H284.555a5,5,0,0,1-5-5V706a5,5,0,0,1,5-5H392.549a5,5,0,0,1,3.516,8.555l-20.223,20A5,5,0,0,1,372.326,731Zm-82.771-10h80.716l10.112-10H289.555Z" fill="#333"/><path d="M591.445,731H503.674a5,5,0,0,1-3.516-1.445l-20.223-20A5,5,0,0,1,483.451,701H591.445a5,5,0,0,1,5,5v20A5,5,0,0,1,591.445,731Zm-85.716-10h80.716V711H495.617Z" fill="#333"/><rect x="337.322" y="259.8" width="110" height="16" fill="#6a6a68"/><path d="M447.322,280.8h-110a5,5,0,0,1-5-5v-16a5,5,0,0,1,5-5h110a5,5,0,0,1,5,5v16A5,5,0,0,1,447.322,280.8Zm-105-10h100v-6h-100Z" fill="#333"/><path d="M370.328,264.8H347a5,5,0,0,1-5-5V176.066a5,5,0,0,1,5-5h23.333a5,5,0,0,1,5,5V259.8A5,5,0,0,1,370.328,264.8ZM352,254.8h13.333V181.066H352Z" fill="#333"/><rect x="346.995" y="176.066" width="23.333" height="83.734" fill="#629ec0" opacity="0.38" style="mix-blend-mode:multiply"/><rect x="370.328" y="154.733" width="23.333" height="105.067" fill="#ffc859"/><path d="M393.661,264.8H370.328a5,5,0,0,1-5-5V154.732a5,5,0,0,1,5-5h23.333a5,5,0,0,1,5,5V259.8A5,5,0,0,1,393.661,264.8Zm-18.333-10h13.333V159.732H375.328Z" fill="#333"/><rect x="408.403" y="170.855" width="22.337" height="83.734" transform="translate(-48.983 170.919) rotate(-21.787)" fill="#ff7373"/><path d="M424.741,260.745A5,5,0,0,1,420.1,257.6l-31.078-77.753a5,5,0,0,1,2.787-6.5l20.742-8.29a5,5,0,0,1,6.5,2.787L450.124,245.6a5,5,0,0,1-2.787,6.5l-20.742,8.29A5,5,0,0,1,424.741,260.745ZM400.16,180.777l27.366,68.468,11.456-4.579L411.616,176.2Z" fill="#333"/><rect x="376.504" y="298.734" width="102.091" height="101.6" fill="#f9f9f9"/><path d="M478.6,405.333H376.5a5,5,0,0,1-5-5v-101.6a5,5,0,0,1,5-5H478.6a5,5,0,0,1,5,5v101.6A5,5,0,0,1,478.6,405.333Zm-97.091-10H473.6v-91.6H381.5Z" fill="#333"/><rect x="387.75" y="309.488" width="79.6" height="80.091" transform="translate(777.083 -78.016) rotate(90)" fill="#b7f2a7"/><rect x="497.483" y="225" width="77.052" height="101.6" fill="#f9f9f9"/><path d="M574.536,331.6H497.483a5,5,0,0,1-5-5V225a5,5,0,0,1,5-5h77.053a5,5,0,0,1,5,5V326.6A5,5,0,0,1,574.536,331.6Zm-72.053-10h67.053V230H502.483Z" fill="#333"/><rect x="496.21" y="248.273" width="79.6" height="55.053" transform="translate(811.81 -260.21) rotate(90)" fill="#9fd3ed"/><rect x="497.483" y="349.534" width="105.052" height="78.667" fill="#f9f9f9"/><path d="M602.536,433.2H497.483a5,5,0,0,1-5-5V349.534a5,5,0,0,1,5-5H602.536a5,5,0,0,1,5,5V428.2A5,5,0,0,1,602.536,433.2Zm-100.053-10h95.053V354.534H502.483Z" fill="#333"/><rect x="521.677" y="347.341" width="56.667" height="83.053" transform="translate(938.877 -161.143) rotate(90)" fill="#f97d7d"/><rect x="704.636" y="238.045" width="93.397" height="93.397" rx="20.034" transform="translate(421.405 -447.874) rotate(45)" fill="#f9f9f9"/><path d="M741.957,242.4a14.384,14.384,0,0,1,18.755,0l50.019,44.957a19.675,19.675,0,0,0-6.018-13.776l-38.8-37.709a21.038,21.038,0,0,0-29.153,0l-38.8,37.709a19.675,19.675,0,0,0-6.018,13.776Z" fill="#bfbfbf"/><path d="M751.334,347.475a24.953,24.953,0,0,1-17.7-7.321h0l-37.709-37.709a25.061,25.061,0,0,1,0-35.4l37.709-37.71a25.062,25.062,0,0,1,35.4,0l37.709,37.71a25.032,25.032,0,0,1,0,35.4l-37.709,37.709A24.958,24.958,0,0,1,751.334,347.475ZM740.7,333.083a15.054,15.054,0,0,0,21.263,0l37.709-37.709a15.035,15.035,0,0,0,0-21.261L761.966,236.4a15.054,15.054,0,0,0-21.263,0l-37.709,37.71a15.052,15.052,0,0,0,0,21.261Z" fill="#333"/><path d="M751.335,244.36a3,3,0,0,1-3-3v-7.849a3,3,0,1,1,6,0v7.849A3,3,0,0,1,751.335,244.36Z" fill="#333"/><path d="M751.335,338.975a3,3,0,0,1-3-3v-7.849a3,3,0,0,1,6,0v7.849A3,3,0,0,1,751.335,338.975Z" fill="#333"/><path d="M802.566,287.743h-7.849a3,3,0,0,1,0-6h7.849a3,3,0,0,1,0,6Z" fill="#333"/><path d="M707.952,287.743H700.1a3,3,0,0,1,0-6h7.849a3,3,0,0,1,0,6Z" fill="#333"/><path d="M751.334,288.743a3.985,3.985,0,0,1-2.724-1.071l-12.589-11.71a4,4,0,0,1,5.45-5.858l12.589,11.71a4,4,0,0,1-2.726,6.929Z" fill="#333"/><path d="M751.333,288.686a2.5,2.5,0,0,1-2.031-3.954l18.808-26.305a2.5,2.5,0,1,1,4.067,2.908L753.368,287.64A2.494,2.494,0,0,1,751.333,288.686Z" fill="#333"/><circle cx="752.313" cy="284.743" r="6.162" fill="#333"/><rect x="674.001" y="577.748" width="142" height="130" fill="#996447"/><rect x="720.626" y="554.417" width="48.75" height="118" transform="translate(1358.418 -131.584) rotate(90)" fill="#aa7d5e"/><rect x="720.626" y="613.078" width="48.75" height="118" transform="translate(1417.079 -72.923) rotate(90)" fill="#aa7d5e"/><rect x="741.272" y="592.432" width="7.458" height="118" transform="translate(1396.433 -93.569) rotate(90)" fill="#bf9e86"/><path d="M816,712.748H674a5,5,0,0,1-5-5v-130a5,5,0,0,1,5-5H816a5,5,0,0,1,5,5v130A5,5,0,0,1,816,712.748Zm-137-10H811v-120H679Z" fill="#333"/><rect x="741.272" y="533.771" width="7.458" height="118" transform="translate(1337.772 -152.23) rotate(90)" fill="#bf9e86"/><path d="M804,640.792H686a3,3,0,0,1-3-3v-48.75a3,3,0,0,1,3-3H804a3,3,0,0,1,3,3v48.75A3,3,0,0,1,804,640.792Zm-115-6H801v-42.75H689Z" fill="#333"/><path d="M804,699.453H686a3,3,0,0,1-3-3V647.7a3,3,0,0,1,3-3H804a3,3,0,0,1,3,3v48.75A3,3,0,0,1,804,699.453Zm-115-6H801V650.7H689Z" fill="#333"/><path d="M784,569.207a6,6,0,0,1-6-6V491.249c0-18.036-13.607-32.708-30.333-32.708s-30.334,14.672-30.334,32.708v5.625a6,6,0,0,1-12,0v-5.625c0-24.652,18.991-44.708,42.334-44.708S790,466.6,790,491.249v71.958A6,6,0,0,1,784,569.207Z" fill="#333"/><rect x="749.5" y="559.748" width="49.835" height="18" fill="#b67dbc"/><rect x="749.5" y="559.748" width="49.835" height="8.127" fill="#b67dbc" opacity="0.44" style="mix-blend-mode:screen"/><path d="M799.335,582.748H749.5a5,5,0,0,1-5-5v-18a5,5,0,0,1,5-5h49.835a5,5,0,0,1,5,5v18A5,5,0,0,1,799.335,582.748Zm-44.835-10h39.835v-8H754.5Z" fill="#333"/><path d="M738.051,527.349a48.176,48.176,0,0,0,1.365-11.449c0-20.52-12.573-37.156-28.083-37.156S683.251,495.38,683.251,515.9a48.228,48.228,0,0,0,1.364,11.449Z" fill="#9a5ba2"/><path d="M719.428,498.97a44.318,44.318,0,0,0-4.606-19.93,21.475,21.475,0,0,0-3.489-.3c-15.509,0-28.082,16.636-28.082,37.156a48.228,48.228,0,0,0,1.364,11.449H709.01C715.391,520.44,719.428,510.292,719.428,498.97Z" fill="#b67dbc"/><path d="M738.052,532.349H684.615a5,5,0,0,1-4.857-3.813,53.279,53.279,0,0,1-1.507-12.636c0-23.245,14.841-42.156,33.082-42.156s33.083,18.911,33.083,42.156a53.279,53.279,0,0,1-1.507,12.636A5,5,0,0,1,738.052,532.349Zm-49.326-10h45.215a43.738,43.738,0,0,0,.475-6.449c0-17.731-10.355-32.156-23.083-32.156s-23.082,14.425-23.082,32.156A43.738,43.738,0,0,0,688.726,522.349Z" fill="#333"/><rect x="727.668" y="606.417" width="34.667" height="14" fill="#474747" style="mix-blend-mode:hard-light"/><path d="M762.335,623.417H727.668a3,3,0,0,1-3-3v-14a3,3,0,0,1,3-3h34.667a3,3,0,0,1,3,3v14A3,3,0,0,1,762.335,623.417Zm-31.667-6h28.667v-8H730.668Z" fill="#333"/><rect x="727.668" y="665.078" width="34.667" height="14" fill="#474747" style="mix-blend-mode:hard-light"/><path d="M762.335,682.078H727.668a3,3,0,0,1-3-3v-14a3,3,0,0,1,3-3h34.667a3,3,0,0,1,3,3v14A3,3,0,0,1,762.335,682.078Zm-31.667-6h28.667v-8H730.668Z" fill="#333"/><polygon points="714.668 726 686.668 726 686.668 707.748 730.668 707.748 714.668 726" fill="#333"/><path d="M714.668,731h-28a5,5,0,0,1-5-5V707.748a5,5,0,0,1,5-5h44a5,5,0,0,1,3.76,8.3l-16,18.252A5,5,0,0,1,714.668,731Zm-23-10H712.4l7.234-8.252H691.668Z" fill="#333"/><polygon points="775.335 726 803.335 726 803.335 707.748 759.335 707.748 775.335 726" fill="#333"/><path d="M803.335,731h-28a5,5,0,0,1-3.76-1.7l-16-18.252a5,5,0,0,1,3.76-8.3h44a5,5,0,0,1,5,5V726A5,5,0,0,1,803.335,731ZM777.6,721h20.734v-8.252H770.367Z" fill="#333"/><ellipse cx="741.278" cy="494.904" rx="4.2" ry="3.324" transform="translate(-14.647 967.132) rotate(-65.722)" fill="#b67dbc" opacity="0.44" style="mix-blend-mode:screen"/><path d="M396.5,354.2a2,2,0,0,1-1.414-3.414l27.35-27.35a2,2,0,0,1,2.828,2.828l-27.35,27.35A1.99,1.99,0,0,1,396.5,354.2Z" fill="#333"/><path d="M421.1,351.534a2,2,0,0,1-1.414-3.414l24.683-24.684a2,2,0,0,1,2.828,2.828L422.51,350.948A2,2,0,0,1,421.1,351.534Z" fill="#333"/><path d="M401.921,370.708a2,2,0,0,1-1.414-3.414l10.06-10.06a2,2,0,0,1,2.829,2.828l-10.061,10.061A1.993,1.993,0,0,1,401.921,370.708Z" fill="#333"/><path d="M520.333,274.333a2,2,0,0,1-1.414-3.414l18.667-18.667a2,2,0,1,1,2.828,2.829l-18.667,18.667A2,2,0,0,1,520.333,274.333Z" fill="#333"/><path d="M548.268,269.8a2,2,0,0,1-1.414-3.414l7.2-7.2a2,2,0,0,1,2.828,2.828l-7.2,7.2A2,2,0,0,1,548.268,269.8Z" fill="#333"/><path d="M517.333,300.734a2,2,0,0,1-1.414-3.414l22.935-22.934a2,2,0,0,1,2.828,2.828l-22.935,22.934A1.992,1.992,0,0,1,517.333,300.734Z" fill="#333"/><path d="M533.592,406.592a2,2,0,0,1-1.414-3.414l33.75-33.75a2,2,0,0,1,2.828,2.828l-33.75,33.75A2,2,0,0,1,533.592,406.592Z" fill="#333"/><path d="M528.4,390.867a2,2,0,0,1-1.414-3.414L542.2,372.237a2,2,0,0,1,2.828,2.828l-15.217,15.216A2,2,0,0,1,528.4,390.867Z" fill="#333"/><path d="M401.639,202.947a5,5,0,0,1-1.949-9.607l20.579-8.7a5,5,0,0,1,3.894,9.211l-20.579,8.7A5,5,0,0,1,401.639,202.947Z" fill="#333"/><path d="M393.661,186.25H370.328a5,5,0,0,1,0-10h23.333a5,5,0,1,1,0,10Z" fill="#333"/><path d="M370.328,199.872H347a5,5,0,0,1,0-10h23.333a5,5,0,0,1,0,10Z" fill="#333"/><rect x="172.054" y="412.2" width="110" height="16" fill="#6a6a68"/><path d="M282.054,433.2h-110a5,5,0,0,1-5-5v-16a5,5,0,0,1,5-5h110a5,5,0,0,1,5,5v16A5,5,0,0,1,282.054,433.2Zm-105-10h100v-6h-100Z" fill="#333"/><path d="M227.031,302.167a2.5,2.5,0,0,1-2.5-2.5V234.4L207.5,221.172a2.5,2.5,0,0,1,3.066-3.949l18,13.976a2.5,2.5,0,0,1,.967,1.974v66.494A2.5,2.5,0,0,1,227.031,302.167Z" fill="#333"/><path d="M236.053,304.167a2.5,2.5,0,0,1-2.5-2.5V268.42a2.5,2.5,0,0,1,5,0v33.247A2.5,2.5,0,0,1,236.053,304.167Z" fill="#333"/><path d="M216.667,302.5a2.5,2.5,0,0,1-2.5-2.5V244a2.5,2.5,0,0,1,5,0v56A2.5,2.5,0,0,1,216.667,302.5Z" fill="#333"/><path d="M244.552,354.11V289.2h-35v64.909a7.866,7.866,0,0,1-2.605,5.834,30,30,0,1,0,40.17-.034A7.8,7.8,0,0,1,244.552,354.11Z" fill="#7d80ba"/><g opacity="0.6" style="mix-blend-mode:screen"><path d="M257.054,364.491a30.16,30.16,0,0,0-2.133-3.366A7.741,7.741,0,0,0,257.054,364.491Z" fill="#7d80ba"/><path d="M207.078,388.017a29.916,29.916,0,0,1,9.875-23.423,7.865,7.865,0,0,0,2.6-5.834V293.851h28.665v-8h-35V350.76a7.863,7.863,0,0,1-2.6,5.834,29.9,29.9,0,0,0,.091,44.53A29.61,29.61,0,0,1,207.078,388.017Z" fill="#7d80ba"/></g><path d="M227.085,417.2q-1.124,0-2.256-.07a34.993,34.993,0,0,1-21.231-60.9,2.873,2.873,0,0,0,.957-2.124V289.2a5,5,0,0,1,5-5h35a5,5,0,0,1,5,5v64.91a2.8,2.8,0,0,0,.912,2.083,34.987,34.987,0,0,1,.554,51.515A34.664,34.664,0,0,1,227.085,417.2Zm-12.53-123v59.909a12.893,12.893,0,0,1-4.253,9.544,25,25,0,1,0,33.472-.028,12.816,12.816,0,0,1-4.221-9.515V294.2Z" fill="#333"/><path d="M227.033,252.668a2.5,2.5,0,0,1-1.4-4.573l13.415-9.051V219.2a2.5,2.5,0,0,1,.757-1.792l9.529-9.264a2.5,2.5,0,1,1,3.486,3.585l-8.772,8.527v20.121a2.5,2.5,0,0,1-1.1,2.072l-14.516,9.794A2.491,2.491,0,0,1,227.033,252.668Z" fill="#333"/><path d="M241.547,221.7a2.5,2.5,0,0,1-2.5-2.5V174.066a2.5,2.5,0,0,1,5,0V219.2A2.5,2.5,0,0,1,241.547,221.7Z" fill="#333"/><path d="M241.545,197.372a2.487,2.487,0,0,1-1.582-.566L225.447,184.92a2.5,2.5,0,1,1,3.168-3.868l14.516,11.886a2.5,2.5,0,0,1-1.586,4.434Z" fill="#333"/><path d="M216.665,270.92a2.494,2.494,0,0,1-1.573-.558l-10.635-8.62a2.5,2.5,0,0,1,3.148-3.885l10.636,8.621a2.5,2.5,0,0,1-1.576,4.442Z" fill="#333"/><ellipse cx="220.519" cy="381.463" rx="5.5" ry="3.931" transform="translate(-220.091 383.874) rotate(-60.282)" fill="#7d80ba" opacity="0.6" style="mix-blend-mode:screen"/><path d="M574.326,779.577H495.132a5,5,0,0,1,0-10h79.194a5,5,0,0,1,0,10Z" fill="#1d2f3d"/><path d="M473,779.577H460.341a5,5,0,0,1,0-10H473a5,5,0,0,1,0,10Z" fill="#1d2f3d"/></g></g></svg>