<?xml version="1.0" encoding="UTF-8"?><svg version="1.1" id="Layer_1" xmlns="http://www.w3.org/2000/svg" xmlns:xlink="http://www.w3.org/1999/xlink" x="0px" y="0px" viewBox="0 0 1000 1000" enable-background="new 0 0 1000 1000" xml:space="preserve" width="1000px" height="1000px">
<g>
	<g id="Layer_1_1_">
		<g opacity="0.2">
			<path fill="#153144" d="M653.475,703.327c-1.657,0-3-1.343-3-3V412.321c0-1.657,1.343-3,3-3s3,1.343,3,3v288.006
				C656.475,701.984,655.132,703.327,653.475,703.327z"/>
			<path fill="#153144" d="M507.678,703.327h-112c-1.657,0-3-1.343-3-3v-380.9c0-1.657,1.343-3,3-3h112c1.657,0,3,1.343,3,3v380.9
				C510.678,701.984,509.335,703.327,507.678,703.327z M398.678,697.327h106v-374.9h-106V697.327z"/>
			<path fill="#153144" d="M488.113,620.327h-73c-1.657,0-3-1.343-3-3s1.343-3,3-3h73c1.657,0,3,1.343,3,3
				S489.77,620.327,488.113,620.327z"/>
			<path fill="#153144" d="M488.113,632.327h-73c-1.657,0-3-1.343-3-3s1.343-3,3-3h73c1.657,0,3,1.343,3,3
				S489.77,632.327,488.113,632.327z"/>
			<path fill="#153144" d="M488.113,586.327h-73c-1.657,0-3-1.343-3-3s1.343-3,3-3h73c1.657,0,3,1.343,3,3
				S489.77,586.327,488.113,586.327z"/>
			<path fill="#153144" d="M488.113,598.327h-73c-1.657,0-3-1.343-3-3s1.343-3,3-3h73c1.657,0,3,1.343,3,3
				S489.77,598.327,488.113,598.327z"/>
			<path fill="#153144" d="M488.113,552.327h-73c-1.657,0-3-1.343-3-3s1.343-3,3-3h73c1.657,0,3,1.343,3,3
				S489.77,552.327,488.113,552.327z"/>
			<path fill="#153144" d="M488.113,564.327h-73c-1.657,0-3-1.343-3-3s1.343-3,3-3h73c1.657,0,3,1.343,3,3
				S489.77,564.327,488.113,564.327z"/>
			<path fill="#153144" d="M488.113,518.327h-73c-1.657,0-3-1.343-3-3s1.343-3,3-3h73c1.657,0,3,1.343,3,3
				S489.77,518.327,488.113,518.327z"/>
			<path fill="#153144" d="M488.113,530.327h-73c-1.657,0-3-1.343-3-3s1.343-3,3-3h73c1.657,0,3,1.343,3,3
				S489.77,530.327,488.113,530.327z"/>
			<path fill="#153144" d="M488.113,484.327h-73c-1.657,0-3-1.343-3-3s1.343-3,3-3h73c1.657,0,3,1.343,3,3
				S489.77,484.327,488.113,484.327z"/>
			<path fill="#153144" d="M488.113,496.327h-73c-1.657,0-3-1.343-3-3s1.343-3,3-3h73c1.657,0,3,1.343,3,3
				S489.77,496.327,488.113,496.327z"/>
			<path fill="#153144" d="M488.113,450.327h-73c-1.657,0-3-1.343-3-3s1.343-3,3-3h73c1.657,0,3,1.343,3,3
				S489.77,450.327,488.113,450.327z"/>
			<path fill="#153144" d="M488.113,462.327h-73c-1.657,0-3-1.343-3-3s1.343-3,3-3h73c1.657,0,3,1.343,3,3
				S489.77,462.327,488.113,462.327z"/>
			<path fill="#153144" d="M488.113,416.327h-73c-1.657,0-3-1.343-3-3s1.343-3,3-3h73c1.657,0,3,1.343,3,3
				S489.77,416.327,488.113,416.327z"/>
			<path fill="#153144" d="M488.113,428.327h-73c-1.657,0-3-1.343-3-3s1.343-3,3-3h73c1.657,0,3,1.343,3,3
				S489.77,428.327,488.113,428.327z"/>
			<path fill="#153144" d="M488.113,382.327h-73c-1.657,0-3-1.343-3-3s1.343-3,3-3h73c1.657,0,3,1.343,3,3
				S489.77,382.327,488.113,382.327z"/>
			<path fill="#153144" d="M488.113,394.327h-73c-1.657,0-3-1.343-3-3s1.343-3,3-3h73c1.657,0,3,1.343,3,3
				S489.77,394.327,488.113,394.327z"/>
			<path fill="#153144" d="M488.113,348.327h-73c-1.657,0-3-1.343-3-3s1.343-3,3-3h73c1.657,0,3,1.343,3,3
				S489.77,348.327,488.113,348.327z"/>
			<path fill="#153144" d="M488.113,360.327h-73c-1.657,0-3-1.343-3-3s1.343-3,3-3h73c1.657,0,3,1.343,3,3
				S489.77,360.327,488.113,360.327z"/>
			<path fill="#153144" d="M488.678,322.424h-74c-1.657,0-3-1.343-3-3v-43c0-22.091,17.909-40,40-40s40,17.909,40,40v43
				C491.678,321.081,490.335,322.424,488.678,322.424z M417.678,316.424h68v-40c0-18.778-15.222-34-34-34s-34,15.222-34,34V316.424z
				"/>
			<path fill="#153144" d="M653.475,415.321H507.688c-1.657,0-3-1.343-3-3v-20c0-1.657,1.343-3,3-3h145.787c1.657,0,3,1.343,3,3v20
				C656.475,413.978,655.132,415.321,653.475,415.321z M510.688,409.321h139.787v-14H510.688V409.321z"/>
			<path fill="#153144" d="M631.113,662.327c-1.657,0-3-1.343-3-3v-15c0-1.657,1.343-3,3-3s3,1.343,3,3v15
				C634.113,660.984,632.77,662.327,631.113,662.327z"/>
			<path fill="#153144" d="M611.113,662.327c-1.657,0-3-1.343-3-3v-15c0-1.657,1.343-3,3-3s3,1.343,3,3v15
				C614.113,660.984,612.77,662.327,611.113,662.327z"/>
			<path fill="#153144" d="M591.113,662.327c-1.657,0-3-1.343-3-3v-15c0-1.657,1.343-3,3-3s3,1.343,3,3v15
				C594.113,660.984,592.77,662.327,591.113,662.327z"/>
			<path fill="#153144" d="M571.113,662.327c-1.657,0-3-1.343-3-3v-15c0-1.657,1.343-3,3-3s3,1.343,3,3v15
				C574.113,660.984,572.77,662.327,571.113,662.327z"/>
			<path fill="#153144" d="M551.113,662.327c-1.657,0-3-1.343-3-3v-15c0-1.657,1.343-3,3-3s3,1.343,3,3v15
				C554.113,660.984,552.77,662.327,551.113,662.327z"/>
			<path fill="#153144" d="M531.113,662.327c-1.657,0-3-1.343-3-3v-15c0-1.657,1.343-3,3-3s3,1.343,3,3v15
				C534.113,660.984,532.77,662.327,531.113,662.327z"/>
			<path fill="#153144" d="M631.113,622.327c-1.657,0-3-1.343-3-3v-15c0-1.657,1.343-3,3-3s3,1.343,3,3v15
				C634.113,620.984,632.77,622.327,631.113,622.327z"/>
			<path fill="#153144" d="M611.113,622.327c-1.657,0-3-1.343-3-3v-15c0-1.657,1.343-3,3-3s3,1.343,3,3v15
				C614.113,620.984,612.77,622.327,611.113,622.327z"/>
			<path fill="#153144" d="M591.113,622.327c-1.657,0-3-1.343-3-3v-15c0-1.657,1.343-3,3-3s3,1.343,3,3v15
				C594.113,620.984,592.77,622.327,591.113,622.327z"/>
			<path fill="#153144" d="M571.113,622.327c-1.657,0-3-1.343-3-3v-15c0-1.657,1.343-3,3-3s3,1.343,3,3v15
				C574.113,620.984,572.77,622.327,571.113,622.327z"/>
			<path fill="#153144" d="M551.113,622.327c-1.657,0-3-1.343-3-3v-15c0-1.657,1.343-3,3-3s3,1.343,3,3v15
				C554.113,620.984,552.77,622.327,551.113,622.327z"/>
			<path fill="#153144" d="M531.113,622.327c-1.657,0-3-1.343-3-3v-15c0-1.657,1.343-3,3-3s3,1.343,3,3v15
				C534.113,620.984,532.77,622.327,531.113,622.327z"/>
			<path fill="#153144" d="M631.113,582.327c-1.657,0-3-1.343-3-3v-15c0-1.657,1.343-3,3-3s3,1.343,3,3v15
				C634.113,580.984,632.77,582.327,631.113,582.327z"/>
			<path fill="#153144" d="M611.113,582.327c-1.657,0-3-1.343-3-3v-15c0-1.657,1.343-3,3-3s3,1.343,3,3v15
				C614.113,580.984,612.77,582.327,611.113,582.327z"/>
			<path fill="#153144" d="M591.113,582.327c-1.657,0-3-1.343-3-3v-15c0-1.657,1.343-3,3-3s3,1.343,3,3v15
				C594.113,580.984,592.77,582.327,591.113,582.327z"/>
			<path fill="#153144" d="M571.113,582.327c-1.657,0-3-1.343-3-3v-15c0-1.657,1.343-3,3-3s3,1.343,3,3v15
				C574.113,580.984,572.77,582.327,571.113,582.327z"/>
			<path fill="#153144" d="M551.113,582.327c-1.657,0-3-1.343-3-3v-15c0-1.657,1.343-3,3-3s3,1.343,3,3v15
				C554.113,580.984,552.77,582.327,551.113,582.327z"/>
			<path fill="#153144" d="M531.113,582.327c-1.657,0-3-1.343-3-3v-15c0-1.657,1.343-3,3-3s3,1.343,3,3v15
				C534.113,580.984,532.77,582.327,531.113,582.327z"/>
			<path fill="#153144" d="M631.113,542.327c-1.657,0-3-1.343-3-3v-15c0-1.657,1.343-3,3-3s3,1.343,3,3v15
				C634.113,540.984,632.77,542.327,631.113,542.327z"/>
			<path fill="#153144" d="M611.113,542.327c-1.657,0-3-1.343-3-3v-15c0-1.657,1.343-3,3-3s3,1.343,3,3v15
				C614.113,540.984,612.77,542.327,611.113,542.327z"/>
			<path fill="#153144" d="M591.113,542.327c-1.657,0-3-1.343-3-3v-15c0-1.657,1.343-3,3-3s3,1.343,3,3v15
				C594.113,540.984,592.77,542.327,591.113,542.327z"/>
			<path fill="#153144" d="M571.113,542.327c-1.657,0-3-1.343-3-3v-15c0-1.657,1.343-3,3-3s3,1.343,3,3v15
				C574.113,540.984,572.77,542.327,571.113,542.327z"/>
			<path fill="#153144" d="M551.113,542.327c-1.657,0-3-1.343-3-3v-15c0-1.657,1.343-3,3-3s3,1.343,3,3v15
				C554.113,540.984,552.77,542.327,551.113,542.327z"/>
			<path fill="#153144" d="M531.113,542.327c-1.657,0-3-1.343-3-3v-15c0-1.657,1.343-3,3-3s3,1.343,3,3v15
				C534.113,540.984,532.77,542.327,531.113,542.327z"/>
			<path fill="#153144" d="M631.113,502.326c-1.657,0-3-1.343-3-3v-15c0-1.657,1.343-3,3-3s3,1.343,3,3v15
				C634.113,500.983,632.77,502.326,631.113,502.326z"/>
			<path fill="#153144" d="M611.113,502.326c-1.657,0-3-1.343-3-3v-15c0-1.657,1.343-3,3-3s3,1.343,3,3v15
				C614.113,500.983,612.77,502.326,611.113,502.326z"/>
			<path fill="#153144" d="M591.113,502.326c-1.657,0-3-1.343-3-3v-15c0-1.657,1.343-3,3-3s3,1.343,3,3v15
				C594.113,500.983,592.77,502.326,591.113,502.326z"/>
			<path fill="#153144" d="M571.113,502.326c-1.657,0-3-1.343-3-3v-15c0-1.657,1.343-3,3-3s3,1.343,3,3v15
				C574.113,500.983,572.77,502.326,571.113,502.326z"/>
			<path fill="#153144" d="M551.113,502.326c-1.657,0-3-1.343-3-3v-15c0-1.657,1.343-3,3-3s3,1.343,3,3v15
				C554.113,500.983,552.77,502.326,551.113,502.326z"/>
			<path fill="#153144" d="M531.113,502.326c-1.657,0-3-1.343-3-3v-15c0-1.657,1.343-3,3-3s3,1.343,3,3v15
				C534.113,500.983,532.77,502.326,531.113,502.326z"/>
			<path fill="#153144" d="M631.113,462.327c-1.657,0-3-1.343-3-3v-15c0-1.657,1.343-3,3-3s3,1.343,3,3v15
				C634.113,460.984,632.77,462.327,631.113,462.327z"/>
			<path fill="#153144" d="M611.113,462.327c-1.657,0-3-1.343-3-3v-15c0-1.657,1.343-3,3-3s3,1.343,3,3v15
				C614.113,460.984,612.77,462.327,611.113,462.327z"/>
			<path fill="#153144" d="M591.113,462.327c-1.657,0-3-1.343-3-3v-15c0-1.657,1.343-3,3-3s3,1.343,3,3v15
				C594.113,460.984,592.77,462.327,591.113,462.327z"/>
			<path fill="#153144" d="M571.113,462.327c-1.657,0-3-1.343-3-3v-15c0-1.657,1.343-3,3-3s3,1.343,3,3v15
				C574.113,460.984,572.77,462.327,571.113,462.327z"/>
			<path fill="#153144" d="M551.113,462.327c-1.657,0-3-1.343-3-3v-15c0-1.657,1.343-3,3-3s3,1.343,3,3v15
				C554.113,460.984,552.77,462.327,551.113,462.327z"/>
			<path fill="#153144" d="M531.113,462.327c-1.657,0-3-1.343-3-3v-15c0-1.657,1.343-3,3-3s3,1.343,3,3v15
				C534.113,460.984,532.77,462.327,531.113,462.327z"/>
			<path fill="#153144" d="M394.537,703.327h-60.565c-1.657,0-3-1.343-3-3v-288c0-1.657,1.343-3,3-3h60.565c1.657,0,3,1.343,3,3v288
				C397.537,701.984,396.194,703.327,394.537,703.327z M336.972,697.327h54.565v-282h-54.565V697.327z"/>
			<path fill="#153144" d="M351.113,622.327c-1.657,0-3-1.343-3-3v-15c0-1.657,1.343-3,3-3s3,1.343,3,3v15
				C354.113,620.984,352.77,622.327,351.113,622.327z"/>
			<g opacity="0.36">
				<path fill="#153144" d="M351.113,633.327c-1.657,0-3-1.343-3-3v-6c0-1.657,1.343-3,3-3s3,1.343,3,3v6
					C354.113,631.984,352.77,633.327,351.113,633.327z"/>
			</g>
			<path fill="#153144" d="M364.113,622.327c-1.657,0-3-1.343-3-3v-15c0-1.657,1.343-3,3-3s3,1.343,3,3v15
				C367.113,620.984,365.77,622.327,364.113,622.327z"/>
			<g opacity="0.36">
				<path fill="#153144" d="M364.113,633.327c-1.657,0-3-1.343-3-3v-6c0-1.657,1.343-3,3-3s3,1.343,3,3v6
					C367.113,631.984,365.77,633.327,364.113,633.327z"/>
			</g>
			<path fill="#153144" d="M377.113,622.327c-1.657,0-3-1.343-3-3v-15c0-1.657,1.343-3,3-3s3,1.343,3,3v15
				C380.113,620.984,378.77,622.327,377.113,622.327z"/>
			<g opacity="0.36">
				<path fill="#153144" d="M377.113,633.327c-1.657,0-3-1.343-3-3v-6c0-1.657,1.343-3,3-3s3,1.343,3,3v6
					C380.113,631.984,378.77,633.327,377.113,633.327z"/>
			</g>
			<path fill="#153144" d="M351.113,578.327c-1.657,0-3-1.343-3-3v-15c0-1.657,1.343-3,3-3s3,1.343,3,3v15
				C354.113,576.984,352.77,578.327,351.113,578.327z"/>
			<g opacity="0.36">
				<path fill="#153144" d="M351.113,589.327c-1.657,0-3-1.343-3-3v-6c0-1.657,1.343-3,3-3s3,1.343,3,3v6
					C354.113,587.984,352.77,589.327,351.113,589.327z"/>
			</g>
			<path fill="#153144" d="M364.113,578.327c-1.657,0-3-1.343-3-3v-15c0-1.657,1.343-3,3-3s3,1.343,3,3v15
				C367.113,576.984,365.77,578.327,364.113,578.327z"/>
			<g opacity="0.36">
				<path fill="#153144" d="M364.113,589.327c-1.657,0-3-1.343-3-3v-6c0-1.657,1.343-3,3-3s3,1.343,3,3v6
					C367.113,587.984,365.77,589.327,364.113,589.327z"/>
			</g>
			<path fill="#153144" d="M377.113,578.327c-1.657,0-3-1.343-3-3v-15c0-1.657,1.343-3,3-3s3,1.343,3,3v15
				C380.113,576.984,378.77,578.327,377.113,578.327z"/>
			<g opacity="0.36">
				<path fill="#153144" d="M377.113,589.327c-1.657,0-3-1.343-3-3v-6c0-1.657,1.343-3,3-3s3,1.343,3,3v6
					C380.113,587.984,378.77,589.327,377.113,589.327z"/>
			</g>
			<path fill="#153144" d="M351.113,534.327c-1.657,0-3-1.343-3-3v-15c0-1.657,1.343-3,3-3s3,1.343,3,3v15
				C354.113,532.984,352.77,534.327,351.113,534.327z"/>
			<g opacity="0.36">
				<path fill="#153144" d="M351.113,545.327c-1.657,0-3-1.343-3-3v-6c0-1.657,1.343-3,3-3s3,1.343,3,3v6
					C354.113,543.984,352.77,545.327,351.113,545.327z"/>
			</g>
			<path fill="#153144" d="M364.113,534.327c-1.657,0-3-1.343-3-3v-15c0-1.657,1.343-3,3-3s3,1.343,3,3v15
				C367.113,532.984,365.77,534.327,364.113,534.327z"/>
			<g opacity="0.36">
				<path fill="#153144" d="M364.113,545.327c-1.657,0-3-1.343-3-3v-6c0-1.657,1.343-3,3-3s3,1.343,3,3v6
					C367.113,543.984,365.77,545.327,364.113,545.327z"/>
			</g>
			<path fill="#153144" d="M377.113,534.327c-1.657,0-3-1.343-3-3v-15c0-1.657,1.343-3,3-3s3,1.343,3,3v15
				C380.113,532.984,378.77,534.327,377.113,534.327z"/>
			<g opacity="0.36">
				<path fill="#153144" d="M377.113,545.327c-1.657,0-3-1.343-3-3v-6c0-1.657,1.343-3,3-3s3,1.343,3,3v6
					C380.113,543.984,378.77,545.327,377.113,545.327z"/>
			</g>
			<path fill="#153144" d="M351.113,490.327c-1.657,0-3-1.343-3-3v-15c0-1.657,1.343-3,3-3s3,1.343,3,3v15
				C354.113,488.984,352.77,490.327,351.113,490.327z"/>
			<g opacity="0.36">
				<path fill="#153144" d="M351.113,501.326c-1.657,0-3-1.343-3-3v-6c0-1.657,1.343-3,3-3s3,1.343,3,3v6
					C354.113,499.983,352.77,501.326,351.113,501.326z"/>
			</g>
			<path fill="#153144" d="M364.113,490.327c-1.657,0-3-1.343-3-3v-15c0-1.657,1.343-3,3-3s3,1.343,3,3v15
				C367.113,488.984,365.77,490.327,364.113,490.327z"/>
			<g opacity="0.36">
				<path fill="#153144" d="M364.113,501.326c-1.657,0-3-1.343-3-3v-6c0-1.657,1.343-3,3-3s3,1.343,3,3v6
					C367.113,499.983,365.77,501.326,364.113,501.326z"/>
			</g>
			<path fill="#153144" d="M377.113,490.327c-1.657,0-3-1.343-3-3v-15c0-1.657,1.343-3,3-3s3,1.343,3,3v15
				C380.113,488.984,378.77,490.327,377.113,490.327z"/>
			<g opacity="0.36">
				<path fill="#153144" d="M377.113,501.326c-1.657,0-3-1.343-3-3v-6c0-1.657,1.343-3,3-3s3,1.343,3,3v6
					C380.113,499.983,378.77,501.326,377.113,501.326z"/>
			</g>
			<path fill="#153144" d="M351.113,446.327c-1.657,0-3-1.343-3-3v-15c0-1.657,1.343-3,3-3s3,1.343,3,3v15
				C354.113,444.984,352.77,446.327,351.113,446.327z"/>
			<g opacity="0.36">
				<path fill="#153144" d="M351.113,457.327c-1.657,0-3-1.343-3-3v-6c0-1.657,1.343-3,3-3s3,1.343,3,3v6
					C354.113,455.984,352.77,457.327,351.113,457.327z"/>
			</g>
			<path fill="#153144" d="M364.113,446.327c-1.657,0-3-1.343-3-3v-15c0-1.657,1.343-3,3-3s3,1.343,3,3v15
				C367.113,444.984,365.77,446.327,364.113,446.327z"/>
			<g opacity="0.36">
				<path fill="#153144" d="M364.113,457.327c-1.657,0-3-1.343-3-3v-6c0-1.657,1.343-3,3-3s3,1.343,3,3v6
					C367.113,455.984,365.77,457.327,364.113,457.327z"/>
			</g>
			<path fill="#153144" d="M377.113,446.327c-1.657,0-3-1.343-3-3v-15c0-1.657,1.343-3,3-3s3,1.343,3,3v15
				C380.113,444.984,378.77,446.327,377.113,446.327z"/>
			<g opacity="0.36">
				<path fill="#153144" d="M377.113,457.327c-1.657,0-3-1.343-3-3v-6c0-1.657,1.343-3,3-3s3,1.343,3,3v6
					C380.113,455.984,378.77,457.327,377.113,457.327z"/>
			</g>
			<path fill="#153144" d="M713.839,619.009c-24.262,0-44-26.85-44-59.852s19.738-59.852,44-59.852s44,26.849,44,59.852
				S738.1,619.009,713.839,619.009z M713.839,505.309c-20.953,0-38,24.158-38,53.852s17.047,53.852,38,53.852s38-24.157,38-53.852
				s-17.047-53.856-38-53.856V505.309z"/>
			<path fill="#153144" d="M715.411,595.558c-1.657,0-3-1.344-2.999-3.001c0-0.795,0.316-1.558,0.878-2.12L725,578.723
				c1.192-1.151,3.091-1.118,4.242,0.073c1.123,1.163,1.123,3.006,0,4.169l-11.714,11.714
				C716.967,595.242,716.205,595.558,715.411,595.558z"/>
			<path fill="#153144" d="M713.838,577.715c-0.762,0-1.495-0.29-2.05-0.811l-12.5-11.705c-1.232-1.108-1.332-3.005-0.224-4.237
				c1.108-1.232,3.005-1.332,4.237-0.224c0.03,0.027,0.059,0.054,0.087,0.082l12.5,11.7c1.21,1.132,1.272,3.031,0.14,4.24
				c-0.568,0.606-1.361,0.95-2.192,0.95L713.838,577.715z"/>
			<path fill="#153144" d="M715.411,670.362c-1.657,0-3-1.343-3-3V546.177c0-1.657,1.343-3,3-3s3,1.343,3,3v121.185
				C718.411,669.019,717.068,670.362,715.411,670.362z"/>
			<path fill="#153144" d="M451.613,242.424c-1.657,0-3-1.343-3-3V187c0-1.657,1.343-3,3-3s3,1.343,3,3v52.424
				C454.613,241.081,453.27,242.424,451.613,242.424z"/>
		</g>
		<ellipse fill="#153144" cx="152.477" cy="573.677" rx="19" ry="11.157"/>
		<polygon fill="#FFFFFF" points="387.091,432.966 230.633,432.966 230.633,398.145 185.766,407.118 230.633,365.391 
			230.633,286.404 387.091,286.404 		"/>
		<path fill="#FFFFFF" d="M371.925,432.966H240.8c-8.376,0-15.166-6.79-15.167-15.166v-19.655l-44.867,8.973l44.867-41.727V301.57
			c-0.002-8.376,6.787-15.168,15.164-15.17c0.001,0,0.002,0,0.003,0h131.125c8.376,0,15.166,6.79,15.166,15.166V417.8
			C387.091,426.176,380.301,432.966,371.925,432.966L371.925,432.966z"/>
		<path fill="none" stroke="#153144" stroke-width="8" stroke-linecap="round" stroke-linejoin="round" d="M371.925,432.966H240.8
			c-8.376,0-15.166-6.79-15.167-15.166v-19.655l-44.867,8.973l44.867-41.727V301.57c-0.002-8.376,6.787-15.168,15.164-15.17
			c0.001,0,0.002,0,0.003,0h131.125c8.376,0,15.166,6.79,15.166,15.166V417.8C387.091,426.176,380.301,432.966,371.925,432.966
			L371.925,432.966z"/>
		<path fill="#EF2C54" d="M821.966,699.677c-4.077-46.049-38.4-82-80.139-82s-76.062,35.951-80.139,82H821.966z"/>
		<path opacity="0.3" fill="#7EB25B" enable-background="new    " d="M765.989,649c-0.019-10.452-2.942-20.693-8.444-29.58
			c-5.159-1.16-10.43-1.746-15.718-1.747c-41.739,0-76.061,35.951-80.139,82h74.765C754.326,688.387,765.989,669.906,765.989,649z"/>
		<path fill="#EF2C54" d="M864.479,699.677c-2.163-24.428-20.371-43.5-42.513-43.5s-40.35,19.072-42.513,43.5H864.479z"/>
		<path opacity="0.3" fill="#7EB25B" enable-background="new    " d="M834.784,672.8c-0.01-5.548-1.562-10.984-4.484-15.7
			c-2.737-0.615-5.533-0.925-8.338-0.926c-22.142,0-40.35,19.072-42.513,43.5h39.662C828.6,693.688,834.784,683.884,834.784,672.8z"/>
		
			<line fill="none" stroke="#153144" stroke-width="8" stroke-linecap="round" stroke-linejoin="round" x1="745.688" y1="648.093" x2="745.688" y2="699.677"/>
		
			<line fill="none" stroke="#153144" stroke-width="8" stroke-linecap="round" stroke-linejoin="round" x1="718.688" y1="656.177" x2="745.688" y2="672.927"/>
		
			<line fill="none" stroke="#153144" stroke-width="8" stroke-linecap="round" stroke-linejoin="round" x1="746.188" y1="691.302" x2="767.397" y2="673.885"/>
		<ellipse fill="#EF2C54" cx="787.688" cy="419.677" rx="75" ry="107"/>
		<path opacity="0.3" fill="#7EB25B" enable-background="new    " d="M712.688,419.677c0,23.019,5.1,44.34,13.766,61.793
			c7.621,4.382,16.249,6.71,25.04,6.755c37.733,0,68.322-43.64,68.322-97.472c0-31.805-10.679-60.049-27.2-77.84
			c-1.63-0.151-3.272-0.236-4.929-0.236C746.267,312.677,712.688,360.582,712.688,419.677z"/>
		<path fill="none" stroke="#153144" stroke-width="8" stroke-linecap="round" stroke-linejoin="round" d="M871.333,699.677H237.977
			c-8.745,0-15.834-7.089-15.834-15.834l0,0c0.001-8.745,7.09-15.833,15.834-15.833h20.166c6.996,0,12.667-5.671,12.667-12.667l0,0
			c-0.001-6.995-5.672-12.666-12.667-12.666h-72.166c-7.456,0-13.5-6.044-13.5-13.5l0,0c0-7.456,6.044-13.5,13.5-13.5l0,0h15.166
			c10.862,0,19.667-8.805,19.667-19.667l0,0c0-10.862-8.805-19.667-19.667-19.667h-48.666"/>
		
			<line fill="none" stroke="#153144" stroke-width="8" stroke-linecap="round" stroke-linejoin="round" x1="922.569" y1="699.677" x2="893.333" y2="699.677"/>
		<path fill="#EF2C54" d="M116.917,435.481L116.917,435.481c17.896-19.639,48.325-21.051,67.963-3.155
			c1.1,1.002,2.153,2.055,3.155,3.155l0,0c13.348,14.648,16.348,35.982,7.558,53.743l-43.117,87.119l-43.116-87.119
			C100.57,471.463,103.569,450.129,116.917,435.481z"/>
		<path fill="#EF2C54" d="M116.917,454.348L116.917,454.348c17.896-19.639,48.325-21.051,67.963-3.155
			c1.1,1.002,2.153,2.055,3.155,3.155l0,0c5.891,6.463,9.906,14.412,11.611,22.989c3.006-15.005-1.304-30.544-11.611-41.856l0,0
			c-17.896-19.639-48.325-21.051-67.963-3.155c-1.1,1.002-2.153,2.055-3.155,3.155l0,0c-10.306,11.312-14.617,26.851-11.611,41.856
			C107.012,468.76,111.026,460.811,116.917,454.348z"/>
		<path fill="none" stroke="#153144" stroke-width="8" stroke-linecap="round" stroke-linejoin="round" d="M116.917,435.481
			L116.917,435.481c17.896-19.639,48.325-21.051,67.963-3.155c1.1,1.002,2.153,2.055,3.155,3.155l0,0
			c13.348,14.648,16.348,35.982,7.558,53.743l-43.117,87.119l-43.116-87.119C100.57,471.463,103.569,450.129,116.917,435.481z"/>
		<circle fill="#FFFFFF" cx="152.477" cy="467.725" r="23.29"/>
		
			<circle fill="none" stroke="#153144" stroke-width="8" stroke-linecap="round" stroke-linejoin="round" cx="152.477" cy="467.725" r="23.29"/>
		
			<ellipse fill="none" stroke="#153144" stroke-width="6" stroke-linecap="round" stroke-linejoin="round" cx="784.067" cy="350.667" rx="7.621" ry="17.4"/>
		
			<ellipse transform="matrix(0.7178 -0.6963 0.6963 0.7178 -71.4939 640.2256)" fill="none" stroke="#153144" stroke-width="6" stroke-linecap="round" stroke-linejoin="round" cx="753.979" cy="408.301" rx="7.621" ry="17.4"/>
		
			<ellipse transform="matrix(0.5119 -0.859 0.859 0.5119 -98.4545 842.5677)" fill="none" stroke="#153144" stroke-width="6" stroke-linecap="round" stroke-linejoin="round" cx="692.216" cy="507.922" rx="17.4" ry="7.621"/>
		
			<ellipse fill="none" stroke="#153144" stroke-width="6" stroke-linecap="round" stroke-linejoin="round" stroke-miterlimit="4" cx="845.201" cy="608.142" rx="7.621" ry="17.4"/>
		
			<ellipse transform="matrix(0.5674 -0.8234 0.8234 0.5674 31.0221 846.9906)" fill="none" stroke="#153144" stroke-width="6" stroke-linecap="round" stroke-linejoin="round" cx="821.672" cy="393.969" rx="17.4" ry="7.621"/>
		
			<ellipse transform="matrix(0.5674 -0.8234 0.8234 0.5674 -35.2959 878.3296)" fill="none" stroke="#153144" stroke-width="6" stroke-linecap="round" stroke-linejoin="round" cx="818.341" cy="472.759" rx="13.481" ry="5.904"/>
		
			<line fill="none" stroke="#153144" stroke-width="8" stroke-linecap="round" stroke-linejoin="round" x1="787.688" y1="460.677" x2="810.242" y2="440.677"/>
		
			<line fill="none" stroke="#153144" stroke-width="8" stroke-linecap="round" stroke-linejoin="round" x1="787.688" y1="494.677" x2="759.688" y2="472.766"/>
		<polyline fill="none" stroke="#EF2C54" stroke-width="5" stroke-linecap="round" stroke-linejoin="round" points="
			282.011,381.248 261.527,381.248 261.527,333.819 245.027,333.819 254.914,314.735 		"/>
		<path fill="#153144" d="M266.527,376.248v-47.429h-13.278l7.3-14.085h21.467v61.514L266.527,376.248z"/>
		<polyline fill="none" stroke="#EF2C54" stroke-width="5" stroke-linecap="round" stroke-linejoin="round" points="
			362.737,381.248 339.062,381.248 326.374,363.773 326.374,381.248 299.617,381.248 299.617,314.141 		"/>
		<path fill="#153144" d="M304.617,376.248V314.14h16.757v28.212l19.642-28.212h19.727l-22.951,30.291l24.945,31.817H341.61
			l-20.236-27.872v27.872L304.617,376.248z"/>
		<path fill="#EF2C54" d="M251.925,396.345h7.227v1.355H253.6v4.31h4.511v1.357H253.6v5.759h-1.67L251.925,396.345z"/>
		<path fill="#EF2C54" d="M266.963,409.257c-3.606,0.061-6.578-2.813-6.639-6.419c-0.061-3.606,2.813-6.578,6.419-6.639
			c3.606-0.061,6.578,2.813,6.639,6.419c0.001,0.037,0.001,0.073,0.001,0.11c0.124,3.48-2.597,6.402-6.078,6.526
			C267.191,409.258,267.077,409.259,266.963,409.257z M266.963,407.809c2.7,0,4.714-1.963,4.714-5.081
			c0-3.136-2.017-5.081-4.714-5.081s-4.713,1.945-4.713,5.081C262.25,405.846,264.267,407.809,266.963,407.809z"/>
		<path fill="#EF2C54" d="M277.25,396.345v11.426h4.475v1.358h-6.144v-12.784H277.25z"/>
		<path fill="#EF2C54" d="M285.172,396.345v11.426h4.475v1.358H283.5v-12.784H285.172z"/>
		<path fill="#EF2C54" d="M297.22,409.257c-3.606,0.061-6.579-2.812-6.64-6.418s2.812-6.579,6.418-6.64
			c3.606-0.061,6.579,2.812,6.64,6.418c0.001,0.037,0.001,0.074,0.001,0.111c0.124,3.48-2.597,6.402-6.078,6.526
			C297.447,409.258,297.334,409.259,297.22,409.257z M297.22,407.809c2.7,0,4.714-1.963,4.714-5.081
			c0-3.136-2.018-5.081-4.714-5.081s-4.714,1.945-4.714,5.081C292.506,405.846,294.523,407.809,297.22,407.809z"/>
		<path fill="#EF2C54" d="M304.847,396.345h1.779l2.788,10.84l3.081-10.84h1.871l2.934,10.8l2.806-10.8h1.8l-3.7,12.784h-1.871
			l-2.971-10.29l-3.082,10.29l-1.852,0.018L304.847,396.345z"/>
		<path fill="#EF2C54" d="M330.612,397.7H325.4v4.273h4.659v1.376H325.4v4.4h5.209v1.376h-6.878v-12.8h6.878L330.612,397.7z"/>
		<path fill="#EF2C54" d="M337.269,396.345c3.007,0,4.438,1.669,4.438,3.76c0.054,1.815-1.25,3.386-3.044,3.668l3.209,5.356h-2
			l-3.045-5.227h-2.017v5.227h-1.669v-12.784H337.269z M337.269,397.721h-2.458v4.842h2.458c1.889,0,2.714-1.027,2.714-2.458
			C339.983,398.656,339.176,397.721,337.269,397.721z"/>
		<path fill="#EF2C54" d="M348.344,409.257c-2.568,0-4.384-1.43-4.42-3.54h1.776c0.123,1.302,1.278,2.258,2.58,2.134
			c0.02-0.002,0.04-0.004,0.061-0.007c1.614,0,2.568-0.917,2.568-2.128c0-3.447-6.915-1.247-6.915-6c0-2.109,1.706-3.54,4.237-3.54
			c2.439,0,4.035,1.339,4.237,3.283h-1.834c-0.232-1.159-1.299-1.957-2.476-1.852c-1.376-0.037-2.458,0.679-2.458,2.054
			c0,3.3,6.9,1.247,6.9,5.979C352.6,407.46,351.114,409.257,348.344,409.257z"/>
		
			<line fill="none" stroke="#153144" stroke-width="8" stroke-linecap="round" stroke-linejoin="round" x1="787.688" y1="419.677" x2="787.688" y2="699.677"/>
		<path fill="#FFFFFF" d="M469.655,501.01c0,0-12.133,16.833-13.633,18.333s-40.835,7.332-40.835,7.332l-4.422,14.668
			c0,0,48.757-3.5,53.257-8s17-20.666,17-20.666L469.655,501.01z"/>
		<path fill="none" stroke="#153144" stroke-width="8" stroke-linecap="round" stroke-linejoin="round" d="M469.655,501.01
			c0,0-12.133,16.833-13.633,18.333s-45.257,7.332-45.257,7.332l-4.422,14.668c0,0,53.179-3.5,57.679-8s17-20.666,17-20.666
			L469.655,501.01z"/>
		<circle fill="#FFFFFF" cx="563.105" cy="640.01" r="59.667"/>
		<circle fill="#FFFFFF" cx="381.022" cy="640.01" r="59.667"/>
		
			<circle fill="none" stroke="#153144" stroke-width="8" stroke-linecap="round" stroke-linejoin="round" cx="381.022" cy="640.01" r="59.667"/>
		<path fill="#90CAF8" d="M381.022,679.677c-21.907,0.001-39.667-17.758-39.668-39.666c-0.001-21.908,17.758-39.667,39.666-39.668
			c21.907-0.001,39.667,17.758,39.668,39.666c0,0,0,0.001,0,0.001C420.663,661.907,402.919,679.652,381.022,679.677z"/>
		<path fill="none" stroke="#153144" stroke-width="6" stroke-linecap="round" stroke-linejoin="round" d="M346.1,658.8
			c-9.457-17.553-4.399-39.399,11.809-51.011"/>
		<path fill="none" stroke="#153144" stroke-width="6" stroke-linecap="round" stroke-linejoin="round" d="M404.144,621.443
			c6.563,8.16,8.334,19.178,4.657,28.983"/>
		
			<line fill="none" stroke="#153144" stroke-width="8" stroke-linecap="round" stroke-linejoin="round" x1="381.022" y1="640.01" x2="410.765" y2="541.343"/>
		<path fill="#EF2C54" d="M381.022,647.01c-3.866,0-7-3.134-7-7s3.134-7,7-7s7,3.134,7,7
			C387.972,643.855,384.867,646.96,381.022,647.01z"/>
		<path fill="none" stroke="#153144" stroke-width="8" stroke-linecap="round" stroke-linejoin="round" d="M381.022,647.01
			c-3.866,0-7-3.134-7-7s3.134-7,7-7s7,3.134,7,7C387.972,643.855,384.867,646.96,381.022,647.01z"/>
		
			<circle fill="none" stroke="#153144" stroke-width="8" stroke-linecap="round" stroke-linejoin="round" cx="563.105" cy="640.01" r="59.667"/>
		<path fill="#90CAF8" d="M563.105,679.677c-21.907,0.001-39.667-17.759-39.668-39.666s17.759-39.667,39.666-39.668
			s39.667,17.759,39.668,39.666c0,0,0,0.001,0,0.001C602.746,661.907,585.002,679.651,563.105,679.677z"/>
		<path fill="none" stroke="#153144" stroke-width="6" stroke-linecap="round" stroke-linejoin="round" d="M570.472,601.03
			c18.722,3.565,32.276,19.921,32.3,38.98"/>
		<path fill="none" stroke="#153144" stroke-width="6" stroke-linecap="round" stroke-linejoin="round" d="M557.6,669.164
			c-7.377-1.404-13.949-5.548-18.395-11.6"/>
		<polygon fill="none" stroke="#153144" stroke-width="8" stroke-linecap="round" stroke-linejoin="round" points="409.695,559.776 
			464.598,642.004 563.47,641.905 508.567,559.677 		"/>
		<circle fill="#FFFFFF" cx="468.638" cy="462.063" r="26.25"/>
		
			<line fill="none" stroke="#153144" stroke-width="8" stroke-linecap="round" stroke-linejoin="round" x1="481.337" y1="451.438" x2="461.942" y2="488.313"/>
		
			<circle fill="none" stroke="#153144" stroke-width="8" stroke-linecap="round" stroke-linejoin="round" cx="468.638" cy="462.063" r="26.25"/>
		<path fill="#CE2951" d="M502.056,458.063c2.09-9.628,0.815-18.383-4.287-24.473c-10.927-13.042-36.074-9.395-57.25,8.448
			c-5.576,4.686-10.523,10.072-14.719,16.025H502.056z"/>
		<path fill="#AD254C" d="M497.769,433.59c-6.69-7.985-18.712-9.7-31.888-5.749c7.053,0.366,13.078,2.9,17.138,7.749
			c4.746,5.665,6.177,13.638,4.671,22.473h14.366C504.146,448.435,502.871,439.68,497.769,433.59z"/>
		<path fill="none" stroke="#153144" stroke-width="8" stroke-linecap="round" stroke-linejoin="round" d="M502.056,458.063
			c2.09-9.628,0.815-18.383-4.287-24.473c-10.927-13.042-36.074-9.395-57.25,8.448c-5.576,4.686-10.523,10.072-14.719,16.025
			H502.056z"/>
		<path fill="#FFFFFF" d="M479.079,573.677c0,0-7.557,6.166-10.391,9s-1.5,55.333-1.5,55.333h14.167c0,0,4.833-41.833,6.667-43.667
			s12.111-8.666,12.111-8.666L479.079,573.677z"/>
		<path fill="none" stroke="#153144" stroke-width="8" stroke-linecap="round" stroke-linejoin="round" d="M479.079,573.677
			c0,0-7.557,6.166-10.391,9s-1.5,55.333-1.5,55.333h14.167c0,0,4.833-41.833,6.667-43.667s12.111-8.666,12.111-8.666
			L479.079,573.677z"/>
		<path fill="#90CAF8" d="M467.188,500.677l13.167,17l6.228-7.334l21.679,36.667l49.334,3c0,0-31.908-51.667-47.241-63
			s-23.443-6.074-26.851-2.667S467.188,500.677,467.188,500.677z"/>
		<path fill="#74BAE8" d="M526.208,548.1c-2.838-29.99-19.983-54.654-42.9-63.559c-3.673,3.674-16.118,16.135-16.118,16.135
			l13.167,17l6.228-7.334l21.679,36.667L526.208,548.1z"/>
		<path fill="none" stroke="#153144" stroke-width="8" stroke-linecap="round" stroke-linejoin="round" d="M467.188,500.677
			l13.167,17l6.228-7.334l21.679,39.667H557.6c0,0-31.908-51.667-47.241-63s-23.443-6.074-26.851-2.667
			S467.188,500.677,467.188,500.677z"/>
		<path fill="#153144" d="M487.471,654.177h-33.566v-5.53c0.001-4.865,3.77-8.897,8.624-9.224l24.942-1.413L487.471,654.177z"/>
		<path fill="none" stroke="#153144" stroke-width="8" stroke-linecap="round" stroke-linejoin="round" d="M487.471,654.177h-33.566
			v-5.53c0.001-4.865,3.77-8.897,8.624-9.224l24.942-1.413L487.471,654.177z"/>
		<path fill="#CE2951" d="M476.885,572.01l23.248,17.667c0,0,49.889-17,57.463-39.667h-49.334L476.885,572.01z"/>
		<path opacity="0.63" fill="#AD254C" enable-background="new    " d="M525.255,550.01h-16.993l-31.377,22l5.617,4.269
			c1.219-0.188,2.443-0.4,3.675-0.645C505.8,571.685,521.058,561.2,525.255,550.01z"/>
		<path fill="none" stroke="#153144" stroke-width="8" stroke-linecap="round" stroke-linejoin="round" d="M476.885,572.01
			l23.248,17.667c0,0,49.889-17,57.463-39.667h-49.334L476.885,572.01z"/>
		<path fill="#EF2C54" d="M563.471,649c-3.866,0-7-3.134-7-7s3.134-7,7-7s7,3.134,7,7C570.42,645.845,567.316,648.949,563.471,649z"/>
		<path fill="none" stroke="#153144" stroke-width="8" stroke-linecap="round" stroke-linejoin="round" d="M563.471,649
			c-3.866,0-7-3.134-7-7s3.134-7,7-7s7,3.134,7,7C570.42,645.845,567.316,648.949,563.471,649z"/>
		
			<line fill="none" stroke="#153144" stroke-width="8" stroke-linecap="round" stroke-linejoin="round" x1="549.75" y1="435.236" x2="557.596" y2="435.236"/>
		
			<line fill="none" stroke="#153144" stroke-width="8" stroke-linecap="round" stroke-linejoin="round" x1="487.471" y1="435.236" x2="536.667" y2="435.236"/>
		
			<line fill="none" stroke="#153144" stroke-width="8" stroke-linecap="round" stroke-linejoin="round" x1="588.667" y1="656.177" x2="661.688" y2="656.177"/>
		
			<line fill="none" stroke="#153144" stroke-width="8" stroke-linecap="round" stroke-linejoin="round" x1="675.314" y1="617.677" x2="682.332" y2="617.677"/>
		
			<line fill="none" stroke="#153144" stroke-width="8" stroke-linecap="round" stroke-linejoin="round" x1="634.186" y1="617.677" x2="661.688" y2="617.677"/>
		
			<line fill="none" stroke="#153144" stroke-width="8" stroke-linecap="round" stroke-linejoin="round" x1="551.311" y1="491.015" x2="589.633" y2="491.015"/>
		
			<line fill="none" stroke="#153144" stroke-width="8" stroke-linecap="round" stroke-linejoin="round" x1="346.096" y1="576.343" x2="312.599" y2="576.343"/>
		
			<line fill="none" stroke="#153144" stroke-width="8" stroke-linecap="round" stroke-linejoin="round" x1="374.658" y1="559.677" x2="357.909" y2="559.677"/>
	</g>
</g>
</svg>