<?xml version="1.0" encoding="UTF-8"?><svg id="Layer_1" data-name="Layer 1" xmlns="http://www.w3.org/2000/svg" viewBox="0 0 1000 1000" x="0px" y="0px" width="1000px" height="1000px" version="1.1" xmlns:xlink="http://www.w3.org/1999/xlink"><rect x="175" y="244.038" width="650" height="430.267" rx="40" fill="#00e7e9"/><path d="M806.769,250.487a40.011,40.011,0,0,1,1.61,11.234V611.987a40,40,0,0,1-40,40h-570a39.8,39.8,0,0,1-21.769-6.449A40.009,40.009,0,0,0,215,674.3H785a40,40,0,0,0,40-40V284.038A39.958,39.958,0,0,0,806.769,250.487Z" fill="#00d3de"/><path d="M500,174.516h0A132.282,132.282,0,0,1,632.282,306.8v240.45a49.964,49.964,0,0,1-49.964,49.964H417.683a49.964,49.964,0,0,1-49.964-49.964V306.8A132.282,132.282,0,0,1,500,174.516Z" fill="#586b87"/><path d="M582.317,600.213H417.683a53.025,53.025,0,0,1-52.965-52.965V306.8c0-74.595,60.687-135.282,135.282-135.282S635.282,232.2,635.282,306.8v240.45A53.025,53.025,0,0,1,582.317,600.213ZM500,177.516A129.428,129.428,0,0,0,370.718,306.8v240.45a47.018,47.018,0,0,0,46.965,46.965H582.317a47.018,47.018,0,0,0,46.965-46.965V306.8A129.428,129.428,0,0,0,500,177.516Z" fill="#171819"/><path d="M598.214,433.385c-10.275-23.029-3.324-65.206-3.324-65.206s23.224-3.334,28.663,4.725C632.526,386.2,628.434,433.385,598.214,433.385Z" fill="#ffdec5"/><path d="M594.89,368.179s-1.124,6.823-1.8,16.476c0,0,18.86-11.518,34.221,0-.81-4.46-1.918-9.026-3.758-11.751C618.114,364.845,594.89,368.179,594.89,368.179Z" fill="#f9c0b2"/><path d="M598.214,436.385a3,3,0,0,1-2.739-1.778c-10.521-23.58-3.835-65.157-3.545-66.915a3,3,0,0,1,2.533-2.482,84.851,84.851,0,0,1,12.8-.689c9.631.257,15.949,2.513,18.777,6.7,3.174,4.7,4.886,12.666,4.7,21.849-.2,9.669-2.468,19.055-6.387,26.428C618.478,430.547,609.44,436.385,598.214,436.385Zm-.688-65.509c-1.181,8.588-4.807,40.19,2.657,59.433,8.053-.632,14.393-5.206,18.866-13.621,6.036-11.356,8.152-33.017,2.017-42.106C618.288,370.466,606.331,369.945,597.526,370.876Z" fill="#171819"/><path d="M663.706,674.3H336.294v-35.64c0-29.658,20.246-56.215,50.829-66.672L500,533.4l112.877,38.6c30.583,10.457,50.829,37.014,50.829,66.672Z" fill="#ffabcd"/><path d="M350.612,639.664c0-29.658,20.245-56.215,50.829-66.672l107.18-36.649L500,533.4l-112.877,38.6c-30.583,10.457-50.829,37.014-50.829,66.672V674.3h14.318Z" fill="#ffcae2"/><path d="M612.877,571.992,500,533.4l-16.621,5.683,96.255,32.914c30.584,10.457,50.829,37.014,50.829,66.672V674.3h33.243v-35.64C663.706,609.006,643.46,582.449,612.877,571.992Z" fill="#dd76a5"/><path d="M663.706,677.305H336.294a3,3,0,0,1-3-3V638.664c0-30.766,21.242-58.7,52.858-69.511l112.877-38.6a3,3,0,0,1,1.942,0l112.877,38.6c31.616,10.811,52.858,38.745,52.858,69.511v35.641A3,3,0,0,1,663.706,677.305Zm-324.412-6H660.706V638.664c0-28.2-19.611-53.852-48.8-63.833L500,536.565,388.094,574.831c-29.189,9.981-48.8,35.633-48.8,63.833Z" fill="#171819"/><path d="M451.948,503.983v38.836c0,26.538,21.514,38.052,48.052,38.052h0c26.538,0,48.052-11.514,48.052-38.052V503.983Z" fill="#ffdec5"/><path d="M451.948,525.694A107.7,107.7,0,0,0,500,536.845h0a107.7,107.7,0,0,0,48.052-11.151V503.983h-96.1Z" fill="#f9c0b2"/><path d="M500,583.871c-31.967,0-51.052-15.347-51.052-41.052V503.982a3,3,0,0,1,3-3h96.1a3,3,0,0,1,3,3v38.837C551.052,568.524,531.967,583.871,500,583.871Zm-45.052-76.889v35.837c0,10.539,4.39,35.052,45.052,35.052s45.052-24.513,45.052-35.052V506.982Z" fill="#171819"/><path d="M785,677.305H215a43.049,43.049,0,0,1-43-43V284.038a43.049,43.049,0,0,1,43-43H785a43.049,43.049,0,0,1,43,43V634.3A43.049,43.049,0,0,1,785,677.305ZM215,247.038a37.042,37.042,0,0,0-37,37V634.3a37.042,37.042,0,0,0,37,37H785a37.042,37.042,0,0,0,37-37V284.038a37.042,37.042,0,0,0-37-37Z" fill="#171819"/><path d="M885.068,364.62h-150a50,50,0,0,0-50,50h0a50,50,0,0,0,50,50H763v23.849l23.85-23.849h98.218a50,50,0,0,0,50-50h0A50,50,0,0,0,885.068,364.62Z" fill="#00a8ff"/><path d="M764.272,463.46a11.385,11.385,0,0,0-11.385-11.385H727.536a49.9,49.9,0,0,1-38.655-18.287,50.01,50.01,0,0,0,46.187,30.832h29.2Z" fill="#008aee"/><path d="M923.723,382.907a49.837,49.837,0,0,1,3.813,19.168h0a50,50,0,0,1-50,50H786.342a11.469,11.469,0,0,0-10.216,6.258l-11.854,23.242L763,488.469l23.85-23.849h98.218a50,50,0,0,0,50-50h0A49.794,49.794,0,0,0,923.723,382.907Z" fill="#008aee"/><path d="M763,430a16,16,0,1,1,16-16A16.019,16.019,0,0,1,763,430Zm0-26a10,10,0,1,0,10,10A10.011,10.011,0,0,0,763,404Z" fill="#fff"/><path d="M810.067,430a16,16,0,1,1,16-16A16.019,16.019,0,0,1,810.067,430Zm0-26a10,10,0,1,0,10,10A10.012,10.012,0,0,0,810.067,404Z" fill="#fff"/><path d="M858.169,430a16,16,0,1,1,16-16A16.019,16.019,0,0,1,858.169,430Zm0-26a10,10,0,1,0,10,10A10.011,10.011,0,0,0,858.169,404Z" fill="#fff"/><path d="M763,491.469a3,3,0,0,1-3-3V467.62H735.068a53,53,0,0,1,0-106h150a53,53,0,0,1,0,106H788.092l-22.971,22.97A2.993,2.993,0,0,1,763,491.469ZM735.068,367.62a47,47,0,0,0,0,94H763a3,3,0,0,1,3,3v16.607L784.729,462.5a3,3,0,0,1,2.121-.879h98.218a47,47,0,0,0,0-94Z" fill="#171819"/><path d="M136.294,182.113h150a50,50,0,0,1,50,50h0a50,50,0,0,1-50,50H258.362v23.85l-23.849-23.85H136.294a50,50,0,0,1-50-50h0A50,50,0,0,1,136.294,182.113Z" fill="#ffe870"/><path d="M257.091,280.953a11.384,11.384,0,0,1,11.384-11.384h25.351a49.9,49.9,0,0,0,38.655-18.288,50.009,50.009,0,0,1-46.187,30.832h-29.2Z" fill="#ffac73"/><path d="M97.64,200.4a49.838,49.838,0,0,0-3.814,19.168h0a50,50,0,0,0,50,50H235.02a11.468,11.468,0,0,1,10.216,6.257l11.855,23.243,1.271,6.894-23.849-23.85H136.294a50,50,0,0,1-50-50h0A49.785,49.785,0,0,1,97.64,200.4Z" fill="#ffac73"/><path d="M258.362,247.494a16,16,0,1,1,16-16A16.019,16.019,0,0,1,258.362,247.494Zm0-26a10,10,0,1,0,10,10A10.011,10.011,0,0,0,258.362,221.494Z" fill="#fff"/><path d="M211.3,247.494a16,16,0,1,1,16-16A16.019,16.019,0,0,1,211.3,247.494Zm0-26a10,10,0,1,0,10,10A10.011,10.011,0,0,0,211.3,221.494Z" fill="#fff"/><path d="M163.193,247.494a16,16,0,1,1,16-16A16.019,16.019,0,0,1,163.193,247.494Zm0-26a10,10,0,1,0,10,10A10.011,10.011,0,0,0,163.193,221.494Z" fill="#fff"/><path d="M258.363,308.963a3,3,0,0,1-2.122-.879l-22.97-22.971H136.295a53,53,0,1,1,0-106h150a53,53,0,0,1,0,106H261.362v20.85a3,3,0,0,1-3,3ZM136.295,185.113a47,47,0,1,0,0,94h98.218a3,3,0,0,1,2.121.879l18.728,18.728V282.113a3,3,0,0,1,3-3H286.3a47,47,0,0,0,0-94Z" fill="#171819"/><circle cx="417.564" cy="777.354" r="57.347" fill="#09c690"/><circle cx="582.436" cy="777.354" r="57.347" fill="#ff4f7c"/><path d="M582.437,837.7a60.347,60.347,0,1,1,60.346-60.347A60.416,60.416,0,0,1,582.437,837.7Zm0-114.694a54.347,54.347,0,1,0,54.346,54.347A54.409,54.409,0,0,0,582.437,723.007Z" fill="#171819"/><path d="M582.436,762.354c-20.858,0-37.5,6.838-37.5,15.661V786.4a6.25,6.25,0,0,0,5.991,5.956h12.426a5.812,5.812,0,0,0,5.326-8.383,5.924,5.924,0,0,1,2.219-7.5c5.547-3.308,17.307-3.529,23.077,0a5.638,5.638,0,0,1,2.219,7.5,5.812,5.812,0,0,0,5.325,8.383h12.426a6.249,6.249,0,0,0,5.991-5.956v-8.383C619.714,769.413,603.294,762.354,582.436,762.354Z" fill="#fff"/><path d="M421.507,757.354H391.5a7.471,7.471,0,0,0-7.448,7.449v25.1a7.471,7.471,0,0,0,7.448,7.449h30.01a7.471,7.471,0,0,0,7.449-7.449V764.8A7.423,7.423,0,0,0,421.507,757.354Z" fill="#fff"/><path d="M445.567,761.451a3.787,3.787,0,0,0-1.266.521l-11.621,6.7v17.281l11.695,6.7a4.429,4.429,0,0,0,6.108-1.639,4.542,4.542,0,0,0,.6-2.234V765.771A4.483,4.483,0,0,0,445.567,761.451Z" fill="#fff"/><path d="M417.563,837.7a60.347,60.347,0,1,1,60.348-60.347A60.415,60.415,0,0,1,417.563,837.7Zm0-114.694a54.347,54.347,0,1,0,54.348,54.347A54.408,54.408,0,0,0,417.563,723.007Z" fill="#171819"/><path d="M395.383,314.386V421.627c0,57.779,46.839,102.218,104.617,102.218h0c57.778,0,104.617-44.44,104.617-102.218V314.386Z" fill="#ffdec5"/><path d="M500,508.833h0c-57.778,0-104.617-44.44-104.617-102.218v15.012c0,57.779,46.839,102.218,104.617,102.218h0c57.778,0,104.617-44.44,104.617-102.218V406.615C604.617,464.393,557.778,508.833,500,508.833Z" fill="#f9c0b2"/><path d="M395.383,376.137c66.294.3,126.337-18.925,162.163-48.3,5.952,25.517,32.873,46.141,47.071,45.147V314.386c-23.9,0-149.472,4.871-209.234,0Z" fill="#f9c0b2"/><path d="M500,526.846c-28.88,0-55.893-10.756-76.062-30.287a103.366,103.366,0,0,1-31.554-74.932V314.386a3,3,0,0,1,3-3H604.616a3,3,0,0,1,3,3V421.627a103.367,103.367,0,0,1-31.554,74.932C555.893,516.09,528.88,526.846,500,526.846ZM398.384,317.386V421.627c0,55.637,44.635,99.219,101.616,99.219s101.616-43.582,101.616-99.219V317.386Z" fill="#171819"/><path d="M469.052,388.8a2.971,2.971,0,0,1-.52-.045,104.27,104.27,0,0,0-35.964,0,3,3,0,0,1-1.031-5.911,110.369,110.369,0,0,1,38.026,0,3,3,0,0,1-.511,5.956Z" fill="#171819"/><circle cx="442.669" cy="394.95" r="9.153" fill="#171819"/><path d="M560.26,388.8a2.971,2.971,0,0,1-.52-.045,104.32,104.32,0,0,0-35.964,0,3,3,0,0,1-1.031-5.911,110.319,110.319,0,0,1,38.026,0,3,3,0,0,1-.511,5.956Z" fill="#171819"/><circle cx="533.876" cy="394.95" r="9.153" fill="#171819"/><path d="M509.035,482.464c-.9,0-1.45-.047-1.576-.059a3,3,0,0,1,.56-5.974c.7.058,17.13,1.266,28.92-16.738a3,3,0,0,1,5.02,3.287C530.191,480.95,514.113,482.464,509.035,482.464Z" fill="#171819"/><path d="M498.7,449.854c-9.093,0-16.89-5.264-18.542-12.517a3,3,0,0,1,5.85-1.332c1.019,4.475,6.475,7.849,12.692,7.849s11.674-3.374,12.693-7.848a3,3,0,1,1,5.849,1.331C515.592,444.59,507.794,449.854,498.7,449.854Z" fill="#171819"/><path d="M557.878,187.823a150.115,150.115,0,0,0-12.743,61.007c0,62.23,36.9,114.639,87.147,130.435V306.8A132.284,132.284,0,0,0,557.878,187.823Z" fill="#637593"/><path d="M557.878,187.823q-2.106,4.738-3.883,9.69A132.122,132.122,0,0,1,611.753,306.8v63.571a109.6,109.6,0,0,0,20.529,8.9V306.8A132.284,132.284,0,0,0,557.878,187.823Z" fill="#586b87"/><path d="M632.282,382.266a2.984,2.984,0,0,1-.9-.139c-52.548-16.519-89.248-71.333-89.248-133.3a152.177,152.177,0,0,1,13-62.226,3,3,0,0,1,4.055-1.478A135.282,135.282,0,0,1,635.282,306.8v72.468a3,3,0,0,1-3,3ZM559.373,191.931a146.494,146.494,0,0,0-11.238,56.9c0,57.817,33.168,109.081,81.147,126.263V306.8a129.28,129.28,0,0,0-69.909-114.867Z" fill="#171819"/><path d="M500,174.516h0A132.282,132.282,0,0,0,367.718,306.8v55.594q11.832.744,23.962.759c104.869,0,194.676-42.67,232.048-103.222A132.324,132.324,0,0,0,500,174.516Z" fill="#637593"/><path d="M500,174.516h0a131.674,131.674,0,0,0-63.922,16.451,139.143,139.143,0,0,1,42.852-6.728h0a139.32,139.32,0,0,1,130.27,89.93,161.527,161.527,0,0,1-16.508,22.109,164.778,164.778,0,0,0,31.037-36.349A132.325,132.325,0,0,0,500,174.516Z" fill="#586b87"/><path d="M391.68,366.151c-7.944,0-16.069-.257-24.151-.765a3,3,0,0,1-2.811-2.994V306.8c0-74.595,60.687-135.282,135.282-135.282a135.327,135.327,0,0,1,126.534,87.349,3,3,0,0,1-.253,2.639c-18.926,30.665-50.749,56.765-92.027,75.475C492.151,356.064,442.851,366.151,391.68,366.151Zm-20.962-6.587c7.026.39,14.064.587,20.962.587,50.322,0,98.767-9.9,140.1-28.636,39.619-17.959,70.224-42.8,88.614-71.9A129.3,129.3,0,0,0,370.718,306.8Z" fill="#171819"/><path d="M464.434,314.687a3,3,0,0,1-.449-5.966c34.24-5.221,81.589-17.141,112.715-44.285a3,3,0,0,1,3.944,4.522c-17.781,15.5-52.295,36.019-115.754,45.694A2.955,2.955,0,0,1,464.434,314.687Z" fill="#171819"/><path d="M400.854,319.626c-3.026,0-4.712-.047-4.761-.048a3,3,0,0,1,.177-6c.143,0,14.51.4,35.459-1.2a3,3,0,0,1,.457,5.983C418.048,319.443,406.836,319.626,400.854,319.626Z" fill="#171819"/><path d="M547.723,561.527c-14.982,8.123-30.538,9.087-47.723,17.708-17.186-8.621-32.741-9.587-47.723-17.708-.757-.412-20.446-1.047-20.457-1.049,1.384-.083-1.737,13.2.635,27.459,1.894,14.254,9.277,29.5,20.648,33.088a14.654,14.654,0,0,0,2.073.322c14.263,1.419,36.9-32.476,44.824-40.523,7.921,8.048,30.566,41.941,44.824,40.523a14.511,14.511,0,0,0,2.073-.322c11.369-3.593,18.755-18.834,20.65-33.087,2.372-14.265-.747-27.543.633-27.46C568.166,560.48,548.479,561.115,547.723,561.527Z" fill="#dd76a5"/><path d="M452.466,549.649,500,580.871s-25.045,35.314-37.264,32.979c-15.886-3.037-29.221-57.721-29.221-57.721Z" fill="#fff"/><path d="M463.831,616.949a8.817,8.817,0,0,1-1.658-.153c-17.282-3.3-30.16-54.167-31.572-59.956a3,3,0,0,1,1.944-3.55l18.95-6.48a3,3,0,0,1,2.618.331l47.534,31.222a3,3,0,0,1,.8,4.243C498.254,588.52,477.379,616.949,463.831,616.949Zm-26.717-58.881c1.23,4.629,4.047,14.657,7.878,24.769,9.058,23.9,15.82,27.591,18.308,28.066,1.414.272,7.036,0,20.434-14.689,5.111-5.6,9.586-11.378,11.977-14.57l-43.664-28.682Z" fill="#171819"/><path d="M547.534,549.649,500,580.871s25.045,35.314,37.264,32.979c15.886-3.037,29.221-57.721,29.221-57.721Z" fill="#fff"/><path d="M536.169,616.949c-13.548,0-34.423-28.429-38.616-34.343a3,3,0,0,1,.8-4.243l47.534-31.222a3,3,0,0,1,2.618-.331l18.95,6.48a3,3,0,0,1,1.944,3.55c-1.412,5.789-14.29,56.653-31.572,59.956A8.817,8.817,0,0,1,536.169,616.949Zm-31.9-35.295c10.1,13.667,25.721,30.523,32.428,29.249,2.49-.476,9.26-4.168,18.326-28.115,3.826-10.105,6.633-20.1,7.86-24.719l-14.933-5.107Z" fill="#171819"/><path d="M500,647.425a3,3,0,0,1-3-3V580.871a3,3,0,0,1,6,0v63.554A3,3,0,0,1,500,647.425Z" fill="#171819"/></svg>